<?xml version="1.0" standalone="no"?>
<!DOCTYPE svg PUBLIC "-//W3C//DTD SVG 20010904//EN"
 "http://www.w3.org/TR/2001/REC-SVG-20010904/DTD/svg10.dtd">
<svg version="1.0" xmlns="http://www.w3.org/2000/svg"
 width="2084.000000pt" height="2153.000000pt" viewBox="0 0 2084.000000 2153.000000"
 preserveAspectRatio="xMidYMid meet">

<g transform="translate(0.000000,2153.000000) scale(0.100000,-0.100000)"
fill="#000000" stroke="none">
<path d="M13295 21513 c-783 -64 -1450 -266 -2005 -605 -228 -139 -493 -308
-507 -321 -12 -13 -93 -260 -93 -286 0 -9 95 -107 212 -216 385 -362 609 -588
741 -745 71 -85 133 -156 138 -158 5 -2 125 38 266 89 721 258 1062 355 1373
390 149 17 482 6 635 -20 667 -113 1285 -433 1799 -931 428 -414 741 -945 881
-1495 67 -263 94 -482 95 -766 0 -363 -48 -672 -140 -904 -245 -614 -682
-1136 -1246 -1488 -144 -89 -438 -234 -594 -292 -242 -90 -503 -154 -775 -191
-182 -25 -607 -25 -790 0 -566 77 -1030 267 -1457 597 -65 50 -129 104 -143
121 l-26 31 453 456 c250 251 703 712 1008 1024 l555 568 37 107 c20 59 42
130 48 158 12 50 12 53 -16 89 -34 43 -3258 2912 -3679 3274 -724 621 -1559
1015 -2420 1141 -561 82 -1185 60 -1760 -61 -913 -192 -1732 -627 -2389 -1269
-383 -374 -656 -740 -888 -1187 -151 -290 -221 -459 -354 -858 -151 -449 -207
-689 -261 -1110 -22 -178 -25 -802 -5 -990 44 -400 117 -734 239 -1089 328
-956 992 -1812 1856 -2395 671 -453 1408 -728 2232 -833 235 -30 853 -33 1070
-5 510 66 875 161 1315 341 163 67 285 133 612 329 l288 172 45 141 c25 78 45
149 45 157 0 13 -564 498 -960 824 -74 61 -180 157 -235 212 -55 56 -105 101
-112 101 -7 0 -98 -41 -201 -91 -384 -186 -532 -231 -942 -285 -190 -25 -643
-26 -820 -1 -580 82 -1050 286 -1490 646 -525 429 -973 1082 -1159 1686 -158
515 -168 1005 -30 1565 62 249 298 680 535 975 432 536 1065 940 1744 1110
275 69 486 95 779 95 505 0 955 -110 1408 -345 209 -108 510 -311 592 -399
l25 -26 -175 -178 c-96 -97 -318 -328 -494 -512 -176 -184 -542 -567 -814
-850 -272 -283 -512 -534 -534 -557 -34 -36 -47 -63 -88 -189 l-48 -147 27
-34 c36 -47 4290 -3569 4547 -3765 427 -327 933 -534 1525 -627 273 -42 329
-46 695 -46 364 0 422 4 702 45 857 128 1697 468 2348 951 771 571 1339 1337
1653 2229 53 151 154 485 203 675 314 1214 124 2491 -537 3595 -229 382 -499
725 -826 1045 -361 355 -700 593 -1182 831 -563 279 -1167 443 -1820 494 -117
9 -612 11 -711 3z m-1441 -3910 c4 -49 9 -118 12 -155 l5 -66 -38 -6 c-21 -3
-163 -11 -316 -17 -173 -8 -281 -16 -286 -23 -4 -6 -27 -74 -51 -151 l-43
-140 53 -918 c29 -504 51 -920 48 -922 -8 -9 -638 -38 -645 -31 -4 4 -35 482
-69 1062 -34 580 -64 1058 -68 1061 -4 4 -167 -1 -363 -10 -196 -10 -360 -14
-364 -10 -8 9 -29 295 -22 303 5 5 1935 106 2070 109 l71 1 6 -87z m-2520 -95
c11 -102 140 -2387 135 -2393 -10 -9 -640 -38 -648 -29 -8 9 -152 2436 -145
2443 4 5 432 28 555 30 l97 1 6 -52z"/>
<path d="M1740 8959 c-1000 -82 -1541 -745 -1507 -1844 15 -456 111 -767 333
-1076 283 -393 635 -567 1231 -610 332 -24 656 12 895 97 340 122 618 401 769
769 42 103 102 296 94 303 -2 3 -210 67 -462 142 l-458 138 -8 -37 c-15 -70
-60 -197 -97 -271 -123 -246 -294 -350 -575 -350 -197 0 -339 53 -454 169
-148 148 -211 391 -211 812 0 381 52 587 191 753 135 162 306 234 532 223 140
-6 220 -30 322 -98 120 -80 203 -195 246 -337 7 -24 17 -41 23 -39 6 2 211 48
456 102 245 54 449 102 454 106 22 19 -102 292 -197 437 -256 387 -603 570
-1157 612 -153 11 -269 11 -420 -1z"/>
<path d="M4386 7207 c-352 -936 -641 -1708 -644 -1714 -3 -10 108 -13 534 -13
l539 0 68 233 c37 127 75 256 83 285 l16 52 603 0 604 0 30 -97 c16 -54 50
-168 76 -253 25 -85 51 -170 56 -187 l11 -33 550 0 c519 0 550 1 545 18 -3 13
-1243 3321 -1272 3395 -7 16 -44 17 -584 17 l-576 0 -639 -1703z m1397 193
c102 -333 184 -606 183 -608 -2 -1 -172 -1 -378 0 l-374 3 185 612 c102 336
189 609 192 605 4 -4 90 -279 192 -612z"/>
<path d="M7800 7195 l0 -1715 1355 0 1355 0 0 420 0 420 -825 0 -825 0 0 1295
0 1295 -530 0 -530 0 0 -1715z"/>
<path d="M11000 7195 l0 -1715 1355 0 1355 0 0 420 0 420 -825 0 -825 0 0
1295 0 1295 -530 0 -530 0 0 -1715z"/>
<path d="M15840 7195 l0 -1715 525 0 525 0 0 1715 0 1715 -525 0 -525 0 0
-1715z"/>
<path d="M17410 8485 l0 -425 540 0 540 0 0 -1290 0 -1290 530 0 530 0 0 1290
0 1290 540 0 540 0 0 425 0 425 -1610 0 -1610 0 0 -425z"/>
<path d="M1250 4584 c-484 -62 -769 -254 -894 -602 -30 -84 -31 -92 -31 -252
1 -156 2 -169 29 -240 56 -149 134 -252 266 -352 147 -112 301 -168 829 -303
493 -126 602 -168 714 -278 171 -168 152 -455 -40 -628 -216 -194 -682 -247
-1038 -118 -98 36 -212 101 -279 160 -102 90 -194 278 -212 434 -4 30 -12 55
-18 55 -6 0 -90 -7 -186 -15 -96 -8 -179 -15 -184 -15 -14 0 1 -157 25 -250
27 -108 104 -273 169 -360 221 -298 598 -450 1116 -450 659 0 1130 359 1161
885 17 300 -108 545 -363 712 -168 109 -334 166 -803 278 -151 36 -325 81
-386 100 -269 84 -375 175 -405 347 -38 218 124 427 384 493 200 50 510 44
676 -13 223 -77 359 -240 401 -476 6 -36 14 -66 18 -66 20 0 385 31 387 33 8
8 -21 176 -42 247 -110 360 -380 574 -829 657 -78 14 -395 26 -465 17z"/>
<path d="M18950 4579 c-327 -36 -615 -173 -840 -399 -287 -286 -426 -645 -446
-1150 -16 -382 83 -755 277 -1044 66 -100 210 -250 311 -326 405 -306 981
-376 1481 -180 377 147 641 417 793 812 92 238 131 526 113 828 -20 319 -114
616 -270 853 -65 100 -211 254 -312 329 -302 224 -696 323 -1107 277z m385
-374 c333 -54 596 -251 745 -559 99 -204 134 -383 134 -681 0 -227 -12 -326
-59 -490 -108 -375 -399 -653 -765 -732 -127 -27 -374 -25 -493 5 -195 48
-357 142 -492 284 -125 129 -197 252 -253 429 -51 158 -65 290 -59 539 9 363
69 596 205 797 81 120 251 257 404 327 187 86 421 116 633 81z"/>
<path d="M3880 4355 l0 -185 515 0 515 0 0 -1375 0 -1375 205 0 205 0 0 1375
0 1375 520 0 520 0 0 185 0 185 -1240 0 -1240 0 0 -185z"/>
<path d="M7660 3598 c0 -548 5 -1003 11 -1087 34 -485 158 -758 428 -940 181
-123 411 -186 721 -198 437 -17 761 87 990 317 127 127 196 252 244 445 59
233 59 239 63 1368 l4 1037 -210 0 -211 0 0 -999 c0 -1068 -2 -1120 -50 -1306
-77 -293 -258 -435 -611 -476 -135 -15 -329 -6 -434 20 -229 59 -388 195 -461
395 -59 163 -58 146 -61 1304 l-4 1062 -209 0 -210 0 0 -942z"/>
<path d="M11680 2981 l0 -1561 623 0 c750 0 886 10 1113 86 448 149 734 555
820 1164 20 141 23 472 5 615 -67 544 -307 936 -686 1120 -121 59 -209 86
-360 112 -85 14 -206 17 -807 20 l-708 5 0 -1561z m1420 1170 c186 -31 321
-101 440 -228 217 -232 302 -531 287 -1007 -11 -346 -78 -591 -217 -796 -85
-126 -190 -206 -340 -261 -156 -57 -202 -61 -712 -66 l-468 -5 0 1192 0 1192
468 -5 c297 -3 494 -9 542 -16z"/>
<path d="M15770 2980 l0 -1560 205 0 205 0 0 1560 0 1560 -205 0 -205 0 0
-1560z"/>
</g>
</svg>
